<?xml version="1.0" encoding="UTF-8" standalone="no"?>
<svg
   xmlns:dc="http://purl.org/dc/elements/1.1/"
   xmlns:cc="http://creativecommons.org/ns#"
   xmlns:rdf="http://www.w3.org/1999/02/22-rdf-syntax-ns#"
   xmlns:svg="http://www.w3.org/2000/svg"
   xmlns="http://www.w3.org/2000/svg"
   xmlns:sodipodi="http://sodipodi.sourceforge.net/DTD/sodipodi-0.dtd"
   xmlns:inkscape="http://www.inkscape.org/namespaces/inkscape"
   xml:space="preserve"
   enable-background="new 0 0 133.285 116.561"
   viewBox="0 0 133.285 116.561"
   height="116.561px"
   width="133.285px"
   y="0px"
   x="0px"
   id="Ebene_1"
   version="1.1"
   inkscape:version="0.91 r13725"
   sodipodi:docname="hov_logo-icon-nav.svg"><sodipodi:namedview
     pagecolor="#ffffff"
     bordercolor="#666666"
     borderopacity="1"
     objecttolerance="10"
     gridtolerance="10"
     guidetolerance="10"
     inkscape:pageopacity="0"
     inkscape:pageshadow="2"
     inkscape:window-width="1920"
     inkscape:window-height="1137"
     id="namedview7"
     showgrid="false"
     inkscape:zoom="2.024691"
     inkscape:cx="-80.04655"
     inkscape:cy="57.292694"
     inkscape:window-x="0"
     inkscape:window-y="27"
     inkscape:window-maximized="1"
     inkscape:current-layer="Ebene_1" /><metadata
     id="metadata11"><rdf:RDF><cc:Work
         rdf:about=""><dc:format>image/svg+xml</dc:format><dc:type
           rdf:resource="http://purl.org/dc/dcmitype/StillImage" /><dc:title /></cc:Work></rdf:RDF></metadata><defs
     id="defs9" /><g
     style="fill:#ffffff;fill-opacity:1"
     id="g3"><path
       style="fill:#ffffff;fill-opacity:1"
       id="path5"
       d="M120.623,41.306c2.088-1.103,11.809-6.279,9.475-12.501   c-0.676-1.805-1.668-3.305-2.589-4.903c-0.089-0.16-0.384-0.321-0.545-0.287c-0.164,0.037-0.339,0.291-0.393,0.476   c-0.24,0.843-0.586,1.657-1.38,2.042c-1.295,0.614-9.222,4.08-16.01,4.139c-1.949,0.018-2.438-0.302-4.008-0.757   c-1.718-0.5-7.275-1.781-13.698,3.767c-0.459,0.396-0.829,0.896-1.233,1.345c-1.898-1.681-4.005-3.143-6.292-4.297   c-0.003-0.13-0.028-0.305,0.126-0.448c5.91-5.516,1.144-9.837-2.615-15.034c-1.14-1.575-2.992-3.061-3.842-6.525   c-0.302-1.232-0.476-2.435-0.22-3.679c0.178-0.876,0.094-1.098-0.784-1.294c-1.828-0.424-2.588-0.615-5.022,1.049   C65,8.889,63.405,17.057,61.985,18.123c-1.25,0.928-11.453,6.535-12.947,13.058c-0.486,2.124-1.068,4.216-1.609,6.317   c-0.122,0.469-0.27,0.941-0.462,1.387c-0.692,0.906-1.319,1.869-1.897,2.853c-5.415-0.952-8.841-8.403-13.514-7.995   c-1.08,0.099-9.529,4.225-17.223,2.571c-4.901-1.055-9.369-6.554-10.284-7.54c-0.189-0.195-0.628-0.243-0.933-0.205   C2.993,28.582,2.829,29,2.829,29.239c0.007,0.606,0.077,1.219,0.15,1.821c0.207,1.72,0.252,3.486,0.705,5.136   c2.577,9.319,9.4,14.168,10.792,14.974c1.628,0.948,3.489,1.45,4.826,2.95c1.146,1.282,1.298,2.353,0.911,4.015   C16.203,75.332,10.486,80.611,7.601,80.7c-0.025,0.101-0.053,0.198-0.073,0.288c1.238,0.794,4.677,3.557,11.557,2.301   c2.968-0.541,9.641-5.561,10.744-5.988c0.888-0.339,3.991-1.612,6.059,0.014c1.337,1.058,2.964,1.646,4.717,0.896   c1.062-0.448,1.68-0.654,2.546-0.099c5.966,3.838,4.947,6.108,11.737,12.699c4.625,4.484,6.867,6.488,6.946,10.601   c0.007,0.454,0.798,8.833,1.66,9.768c3.637,3.966,8.907,2.897,10.506-0.482c0.281-0.59,1.273-6.69,1.681-8.857   c0.198-1.055,0.552-2.027,1.517-2.722c0.932-0.676,1.891-1.381,2.62-2.264c1.256-1.517,5.389-8.703,10.453-13.628   c1.144-1.112,2.054-2.396,3.416-3.04c2.494-1.178,5.041-2.328,7.873-2.465c0.399-0.021,0.817-0.027,1.188,0.097   c2.276,0.773,4.44,1.772,6.303,3.375c1.048,0.901,1.832,1.928,2.267,3.226c0.647,1.952,1.288,3.9,1.918,5.849   c0.318,1.002,1.14,1.313,1.952,0.649c0.732-0.596,1.431-1.253,2.074-1.954c0.979-1.058,6.044-10.098,3.67-18.01   c-0.67-2.243-3.752-3.317-4.86-5.352c-0.856-3.26-2.397-7.505-4.396-8.759C110.971,56.395,112.742,45.455,120.623,41.306z    M92.427,35.574c1.263-1.432,2.814-2.508,4.438-3.479c5.054-3.067,10.617-0.38,10.956-0.229   c-8.326,4.187-8.176,6.925-11.528,10.155c-0.007-0.018-0.034-0.032-0.041-0.045c-1.174-2.027-2.585-3.903-4.194-5.592   C92.156,36.063,92.328,35.684,92.427,35.574z M72.092,5.639c0.712-0.627,2.596-1.708,4.431-1.291   c-0.215,1.5-0.477,4.835,0.941,7.673c6.793,12.049,9.509,9.152,4.249,16.985c-0.072,0.114-0.093,0.172-0.141,0.244   c-3.01-1.202-5.666-1.862-9.069-2.014c-0.369,0.052-1.065,0.258-0.773-0.66c0.298-0.935,0.876-4.705,0.76-6.742   C72.404,18.283,68.576,8.744,72.092,5.639z M50.132,34.581c0.985-8.751,11.753-13.833,13.331-15.236   c3.332-2.952,2.444-7.906,6.263-11.456c-0.294,1.948,0.086,7.704,0.329,9.251c0.171,1.062,0.339,1.537,0.575,2.596   c0.027,0.144,0.069,1.585,0.044,1.726c-0.338,1.996-0.554,3.252-0.935,5.245c-0.037,0.191-0.369,0.493-0.54,0.479   c-0.828-0.072-1.624,0.044-2.397,0.223c-6.321,0.798-12.028,3.578-16.457,7.713c-0.074,0.035-0.118,0.062-0.218,0.107   C50.127,34.954,50.107,34.765,50.132,34.581z M18.931,50.896c-1.859-1.157-3.767-2.256-5.573-3.485   c-1.655-1.13-7.301-5.673-7.872-13.815c1.634,0.568,7.876,5.944,10.379,7.807c1.375,1.014,4.595,2.096,7.729,2.472   c4.737,0.555,14.055-0.527,17.862,2.085c-0.091-0.167-2.77-2.311-5.375-2.923c-2.185-0.521-16.969-0.736-20.435-4.459   c4.441,0.137,5.556,0.438,15.861-2.147c1.182-0.294,2.237-0.194,3.044,0.584c4.142,3.942,8.041,5.501,9.594,6.408   c-0.769,1.503-1.402,3.081-1.9,4.732c-1.258,0.267-6.768,2.068-11.61,1.12c-5.747-1.128-8.724,4.854-9.025,5.509   c-0.166-0.493-0.344-0.798-0.364-1.11C21.15,52.172,20.018,51.562,18.931,50.896z M91.879,78.763   c-2.03,1.048-3.208,2.914-4.66,4.506c-1.729,1.893-11.429,14.319-11.673,14.483c-1.118,0.729-1.338,1.899-1.554,3.078   c-0.513,2.752-1.037,5.505-1.555,8.261c-0.174,0.96-1.116,2.507-3.225,2.526c-2.72,0.028-4.247-1.129-4.593-3.83   c-0.154-1.196-0.302-2.387-0.462-3.578c-0.232-1.74-0.486-3.479-0.815-5.197c-0.267-1.328-0.891-2.65-1.574-3.842   c-1.555-2.69-3.76-4.811-6.212-6.711c-1.04-0.814-1.961-1.838-2.793-2.87c-1.759-2.17-3.417-4.416-5.115-6.635   c0.057-0.096,2.174-0.021,11.015,4.488c-0.138-0.112-6.77-5.984-10.279-7.012c-2.53-0.736-5.259-0.526-7.91-0.161   c-1.573,0.209-2.948-0.314-4.266-1.102c-0.98-0.575-2.041-0.736-3.195-0.85c-4.04-0.404-12.038,6.244-14.784,7.214   c-1.833,0.654-4.018,0.712-6.502-0.229c5.593-5.45,5.763-7.977,6.2-9.186c0.624-1.702,4.176-14.645,6.888-18.253   c1.064-1.425,3.737-2.517,7.476-2.212c3.31,0.27,5.576-0.267,7.952-1.041c3.128-1.018,5.194-0.014,7.547,2.061   c1.033,0.919,1.929,2.007,2.778,3.096c0.546,0.713,0.519,1.617,0.353,2.499c-0.234,1.332-0.426,2.671-0.659,4.013   c-0.031,0.203-0.141,0.394-0.221,0.624c-0.716-0.624-1.339-1.206-1.998-1.74c-1.277-1.04-12.995-4.741-14.963-4.354   c-4.338,0.85-7.144,4.103-7.83,5.328c-1.003,1.797-4.156,10.695-4.85,13.287c0.107,0.045,2.342-3.276,3.058-4.807   c0.943-1.999,1.401-3.6,2.338-5.602c1.158-2.486,3.03-4.435,5.576-5.403c4.854-1.846,15.653,3.318,16.979,4.551   c1.315,1.223,2.563,2.513,3.866,3.752c0.855,0.822,4.19,8.245,4.704,9.273c0.781,1.563,2.287,2.354,3.76,3.17   c5.443,3.006,12.724,3.828,12.11,3.66c-1.639-0.441-4.029-2.552-4.331-2.784c3.948-2.336,5.423-5.3,5.475-5.424   c0.664-1.427,5.297-5.409,6.551-6.197c4.755-2.958,10.141,1.9,10.706,2.515c0.545,0.581,0.343,1.177-0.113,1.779   c-3.811,4.972-12.777,9.874-13.137,10.306c6.393-1.472,11.648-4.687,15.551-10.135c1.178,0.72,2.992,1.85,4.767,2.314   C97.918,76.53,93.369,77.996,91.879,78.763z M112.316,61.541c0.5,1.026,2.178,5.584,3.384,6.464   c2.362,1.712,3.07,2.007,3.618,3.925c2.103,7.326-3.865,15.777-4.42,16.379c-0.188-0.582-1.473-4.324-2.085-5.764   c-0.555-1.296-4.842-4.614-6.002-5.21c-1.254-0.633-8.437-2.729-10.457-3.938c-0.616-0.366-4.57-3.66-6.118-4.632   c-1.178-0.736-5.67-4.274-13.189,0.441c-0.064-0.027-0.13-0.06-0.202-0.094c0.278-5.107,3.942-7.473,4.309-7.572   c2.509-0.692,4.984-1.198,7.542-0.432c1.451,0.438,3.027,0.955,4.547,1.113c2.715,0.267,5.181,0.783,6.776,3.433   c1.123,1.884,2.232,3.992,4.074,5.198c4.287,2.814,10.552,1.246,10.703,0.969c-0.264,0-0.527-0.021-0.788,0   c-2.52,0.216-7.769-1.701-8.398-2.465c-1.336-1.637-3.133-4.872-4.602-6.376c-3.331-3.403-9.084-3.461-9.378-3.612   c0.646-0.451,1.15-0.862,1.712-1.181C100.935,53.87,110.04,56.863,112.316,61.541z M108.941,55.963   c-0.292-0.353-5.02-1.895-8.379-2.123c-0.1-0.014-0.325-0.147-0.534-0.277c-0.308-2.821-1.003-5.513-2.037-8.031   c0-0.016,0.014-0.042,0.007-0.05c-0.463-1.362,0.223-1.992,1.257-3.009c1.4-1.365,4.136-8.423,12.936-10.442   c1.862-0.422,11.877-1.64,15.064-6.604c0.179,0.418,1.017,1.835,1.168,2.328c2.595,8.689-8.908,11.268-10.477,12.511   C110.087,46.455,108.941,54.438,108.941,55.963z"
       fill="#1D1D1B"
       clip-rule="evenodd"
       fill-rule="evenodd" /></g></svg>