<?xml version="1.0" encoding="UTF-8" standalone="no"?>
<!-- Generator: Adobe Illustrator 16.0.0, SVG Export Plug-In . SVG Version: 6.00 Build 0)  -->

<svg
   xmlns:dc="http://purl.org/dc/elements/1.1/"
   xmlns:cc="http://creativecommons.org/ns#"
   xmlns:rdf="http://www.w3.org/1999/02/22-rdf-syntax-ns#"
   xmlns:svg="http://www.w3.org/2000/svg"
   xmlns="http://www.w3.org/2000/svg"
   xmlns:sodipodi="http://sodipodi.sourceforge.net/DTD/sodipodi-0.dtd"
   xmlns:inkscape="http://www.inkscape.org/namespaces/inkscape"
   version="1.1"
   id="Ebene_1"
   x="0px"
   y="0px"
   width="1152.2264"
   height="302.20395"
   viewBox="0 0 1152.2264 302.20395"
   enable-background="new 0 0 430.867 117.099"
   xml:space="preserve"
   inkscape:version="0.91 r13725"
   sodipodi:docname="logo.svg"><metadata
     id="metadata75"><rdf:RDF><cc:Work
         rdf:about=""><dc:format>image/svg+xml</dc:format><dc:type
           rdf:resource="http://purl.org/dc/dcmitype/StillImage" /><dc:title></dc:title></cc:Work></rdf:RDF></metadata><defs
     id="defs73" /><sodipodi:namedview
     pagecolor="#ffffff"
     bordercolor="#666666"
     borderopacity="1"
     objecttolerance="10"
     gridtolerance="10"
     guidetolerance="10"
     inkscape:pageopacity="0"
     inkscape:pageshadow="2"
     inkscape:window-width="1920"
     inkscape:window-height="1137"
     id="namedview71"
     showgrid="false"
     units="px"
     fit-margin-top="0"
     fit-margin-left="0"
     fit-margin-right="0"
     fit-margin-bottom="0"
     inkscape:zoom="1"
     inkscape:cx="492.94662"
     inkscape:cy="167.38551"
     inkscape:window-x="0"
     inkscape:window-y="27"
     inkscape:window-maximized="1"
     inkscape:current-layer="Ebene_1" /><g
     id="g3"
     transform="matrix(2.7098649,0,0,2.7098649,-7.6309796,-7.4685677)"><g
       id="g5"><path
         d="m 35.222,78.711 0,1.164 c -1.076,0 -2.778,-0.088 -5.559,-0.088 -2.781,0 -4.482,0.088 -5.559,0.088 l 0,-1.164 3.362,-0.18 C 27.556,76.11 27.6,75.573 27.6,69.744 27.6,54.322 27.556,52.617 27.466,49.659 l -3.362,-0.181 0,-1.164 c 1.076,0 3.048,0.09 4.572,0.09 0.718,0 2.601,-0.09 4.482,-0.18 1.883,-0.09 3.721,-0.18 4.349,-0.18 6.411,0 9.102,4.394 9.102,8.069 0,5.829 -4.753,8.697 -11.478,8.697 l -3.675,0 c 0,3.318 0,10.939 0.134,13.72 l 3.632,0.181 z M 31.458,63.738 c 1.164,0.044 1.883,0.088 2.822,0.088 4.799,0 8.563,-2.196 8.563,-7.44 0,-6.367 -5.335,-7.264 -10.445,-7.264 -0.628,0 -0.853,0.089 -0.853,2.018 l -0.087,12.598 z"
         id="path7"
         inkscape:connector-curvature="0"
         style="fill:#1d1d1b" /><path
         d="m 50.153,49.479 0,-1.164 c 1.434,0.045 2.914,0.09 8.52,0.09 2.734,0 8.249,0 15.151,-0.09 l 0.225,7.441 -1.569,0 c -0.404,-5.738 -1.032,-6.365 -4.887,-6.365 l -10.267,0 0,13.809 c 2.734,0 6.411,-0.225 7.711,-0.896 0.584,-0.27 0.853,-4.305 0.853,-5.022 l 1.48,0 c -0.135,1.255 -0.225,3.407 -0.225,7.263 0,2.734 0.044,3.945 0.134,5.291 l -1.479,0 c -0.225,-4.125 -0.538,-5.425 -0.763,-5.47 -1.12,-0.134 -1.748,-0.181 -3.092,-0.181 l -4.619,0 c 0,10.402 0,11.567 0.09,14.348 l 3.543,0.18 0,1.164 c -1.614,0 -3.677,-0.088 -5.829,-0.088 -2.33,0 -3.856,0.088 -4.887,0.088 l 0,-1.164 3.139,-0.18 0,-25.107 c 0,-1.436 -0.046,-2.467 -0.09,-3.767 l -3.139,-0.18 z"
         id="path9"
         inkscape:connector-curvature="0"
         style="fill:#1d1d1b" /><path
         d="m 101.041,79.875 c -6.323,-0.088 -7.443,-0.088 -17.621,-0.088 -3.854,0 -5.379,0.088 -6.635,0.088 l 0,-1.164 3.811,-0.18 c 0.09,-2.421 0.046,-2.958 0.046,-8.787 0,-15.422 0.044,-17.127 -0.046,-20.085 l -3.45,-0.181 0,-1.164 c 1.12,0 2.778,0.09 5.648,0.09 2.778,0 4.526,-0.09 5.559,-0.09 l 0,1.164 -3.633,0.182 c -0.091,2.421 -0.135,2.958 -0.135,8.787 0,15.915 0,17.664 0.091,18.426 0.134,0.853 0.357,1.479 1.39,1.569 1.254,0.18 7.083,0.27 7.621,0.27 1.929,0 3.139,-0.09 4.349,-0.135 l 2.511,-7.396 1.39,0 -0.896,8.694 z"
         id="path11"
         inkscape:connector-curvature="0"
         style="fill:#1d1d1b" /><path
         d="m 130.451,79.875 c -1.12,0 -2.376,-0.088 -4.482,-0.088 -1.301,0 -2.467,0.045 -5.695,0.088 l 0,-1.164 2.152,-0.18 c 1.211,-0.09 1.391,-0.18 1.391,-0.537 0,-0.18 -0.225,-0.854 -0.358,-1.167 l -3.272,-8.921 c -0.313,-0.807 -0.45,-0.896 -1.39,-0.896 l -8.071,0 c -0.492,0 -0.761,0.225 -0.986,0.852 l -3.049,8.742 c -0.178,0.537 -0.448,1.345 -0.448,1.568 0,0.27 0.225,0.359 0.853,0.404 l 2.196,0.135 0,1.164 c -1.12,0 -2.645,-0.088 -4.078,-0.088 -1.57,0 -2.423,0.088 -3.273,0.088 l 0,-1.344 c 2.331,-0.18 2.511,-0.314 3.049,-1.568 0.402,-0.943 0.896,-1.839 3.497,-8.833 l 7.577,-20.533 0.672,0 6.814,18.067 c 3.227,8.295 4.303,11.073 4.932,12.239 0.134,0.313 0.357,0.538 1.972,0.628 l 0,1.344 z M 118.839,65.933 c 0.357,0 0.494,-0.134 0.494,-0.269 0,-0.09 -0.091,-0.402 -0.225,-0.717 l -3.721,-10.088 c -0.136,-0.359 -0.226,-0.627 -0.359,-0.627 -0.179,0 -0.269,0.224 -0.448,0.717 l -3.721,9.818 c -0.09,0.357 -0.271,0.718 -0.271,0.941 0,0.134 0.225,0.224 0.809,0.224 l 7.442,0 z"
         id="path13"
         inkscape:connector-curvature="0"
         style="fill:#1d1d1b" /><path
         d="M 158.563,80.325 C 155.245,75.977 150.268,69.432 147.085,65.486 139.33,55.846 138.478,54.77 136.907,52.663 l -0.09,0.09 0.046,14.258 c 0,0.941 0.09,7.666 0.18,11.521 l 3.765,0.18 0,1.164 c -1.12,-0.043 -2.196,-0.088 -4.482,-0.088 -2.286,0 -3.362,0.045 -4.482,0.088 l 0,-1.164 3.586,-0.18 c 0.044,-4.35 0.135,-8.743 0.225,-13.092 l 0.044,-13.18 c 0,-0.853 -1.12,-2.377 -3.944,-2.781 l 0,-1.164 c 3.496,0.09 3.9,0.09 6.948,0.09 2.287,3.094 16.723,21.744 19.457,24.926 l 0,-8.921 c 0,-3.722 0,-11.522 -0.046,-14.75 l -3.854,-0.181 0,-1.164 c 3.633,0.09 1.614,0 4.395,0.09 1.164,0.045 3.675,-0.09 4.393,-0.09 l 0,1.164 -3.406,0.181 c -0.046,2.511 -0.313,14.659 -0.313,15.915 l -0.091,14.75 -0.675,0 z"
         id="path15"
         inkscape:connector-curvature="0"
         style="fill:#1d1d1b" /><path
         d="m 192.234,79.875 c -3.229,-0.043 -11.655,-0.088 -15.78,-0.088 l -10.716,0 0,-0.672 c 10.178,-13.63 11.612,-15.782 21.296,-29.814 l -12.15,0.09 c -5.738,0.045 -6.545,0.851 -6.902,6.68 l -1.57,0 0.224,-7.756 c 3.497,0.09 10.983,0.09 14.931,0.09 1.658,0 9.146,-0.135 10.669,-0.09 l 0,0.627 c -1.882,2.557 -2.824,3.945 -11.521,16.23 -7.487,10.579 -8.293,11.746 -9.686,13.674 l 6.861,-0.045 c 1.926,0 9.102,-0.09 10.894,-0.762 0.806,-0.361 1.748,-3.633 2.242,-6.682 l 1.435,0 -0.227,8.518 z"
         id="path17"
         inkscape:connector-curvature="0"
         style="fill:#1d1d1b" /><path
         d="m 220.749,79.788 -14.032,0 c -6.949,0 -8.069,0.045 -10.445,0.088 l 0,-1.164 3.139,-0.18 c 0.044,-1.166 0.044,-2.242 0.044,-3.498 l 0,-16.811 c 0,-5.561 0,-6.143 -0.09,-8.563 l -3.407,-0.181 0,-1.164 c 1.435,0.045 3.229,0.09 7.129,0.09 5.47,0 10.984,0 16.499,-0.09 l 0,6.903 -1.526,0 c -0.134,-5.559 -0.851,-5.917 -5.693,-5.917 l -8.967,0 0,13.538 c 1.389,0 6.635,0 7.575,-0.671 0.897,-0.673 0.985,-4.484 1.032,-5.111 l 1.48,0 c -0.09,1.345 -0.271,3.318 -0.271,7.174 0,2.465 0.046,3.899 0.134,5.289 l -1.479,0 c -0.359,-5.11 -0.404,-5.379 -0.897,-5.469 -1.524,-0.27 -6.007,-0.226 -7.575,-0.226 0,4.753 0,11.971 0.134,13.093 0.181,1.523 0.807,1.883 2.465,1.883 l 11.791,0 2.152,-7.174 1.345,0 -0.537,8.161 z"
         id="path19"
         inkscape:connector-curvature="0"
         style="fill:#1d1d1b" /><path
         d="M 252.403,80.325 C 249.085,75.977 244.108,69.432 240.925,65.486 233.17,55.846 232.318,54.77 230.749,52.663 l -0.09,0.09 0.044,14.258 c 0,0.941 0.09,7.666 0.181,11.521 l 3.765,0.18 0,1.164 c -1.121,-0.043 -2.197,-0.088 -4.483,-0.088 -2.286,0 -3.362,0.045 -4.482,0.088 l 0,-1.164 3.587,-0.18 c 0.044,-4.35 0.134,-8.743 0.222,-13.092 l 0.046,-13.18 c 0,-0.853 -1.12,-2.377 -3.944,-2.781 l 0,-1.164 c 3.496,0.09 3.898,0.09 6.949,0.09 2.286,3.094 16.723,21.744 19.457,24.926 l 0,-8.921 c 0,-3.722 0,-11.522 -0.044,-14.75 l -3.857,-0.181 0,-1.164 c 3.631,0.09 1.614,0 4.396,0.09 1.164,0.045 3.676,-0.09 4.393,-0.09 l 0,1.164 -3.409,0.181 c -0.044,2.511 -0.312,14.659 -0.312,15.915 l -0.09,14.75 -0.675,0 z"
         id="path21"
         inkscape:connector-curvature="0"
         style="fill:#1d1d1b" /><path
         d="m 284.55,79.875 c -6.323,-0.088 -7.443,-0.088 -17.619,-0.088 -3.856,0 -5.381,0.088 -6.635,0.088 l 0,-1.164 3.811,-0.18 c 0.088,-2.421 0.044,-2.958 0.044,-8.787 0,-15.422 0.044,-17.127 -0.044,-20.085 l -3.452,-0.181 0,-1.164 c 1.12,0 2.778,0.09 5.648,0.09 2.78,0 4.528,-0.09 5.559,-0.09 l 0,1.164 -3.63,0.181 c -0.091,2.421 -0.137,2.958 -0.137,8.787 0,15.915 0,17.664 0.091,18.426 0.134,0.853 0.357,1.479 1.39,1.569 1.256,0.18 7.083,0.27 7.621,0.27 1.929,0 3.139,-0.09 4.349,-0.135 l 2.511,-7.396 1.39,0 -0.897,8.695 z"
         id="path23"
         inkscape:connector-curvature="0"
         style="fill:#1d1d1b" /><path
         d="m 313.959,79.875 c -1.12,0 -2.376,-0.088 -4.482,-0.088 -1.3,0 -2.466,0.045 -5.692,0.088 l 0,-1.164 2.152,-0.18 c 1.208,-0.09 1.389,-0.18 1.389,-0.537 0,-0.18 -0.225,-0.854 -0.358,-1.167 l -3.272,-8.921 c -0.313,-0.807 -0.448,-0.896 -1.39,-0.896 l -8.069,0 c -0.494,0 -0.763,0.225 -0.986,0.852 l -3.051,8.742 c -0.178,0.537 -0.448,1.345 -0.448,1.568 0,0.27 0.227,0.359 0.853,0.404 l 2.196,0.135 0,1.164 c -1.12,0 -2.645,-0.088 -4.078,-0.088 -1.568,0 -2.421,0.088 -3.273,0.088 l 0,-1.344 c 2.331,-0.18 2.511,-0.314 3.049,-1.568 0.404,-0.943 0.896,-1.839 3.497,-8.833 l 7.577,-20.533 0.672,0 6.814,18.067 c 3.226,8.295 4.302,11.073 4.93,12.239 0.135,0.313 0.36,0.538 1.973,0.628 l 0,1.344 z M 302.351,65.933 c 0.357,0 0.492,-0.134 0.492,-0.269 0,-0.09 -0.091,-0.402 -0.225,-0.717 l -3.721,-10.088 c -0.134,-0.359 -0.226,-0.627 -0.359,-0.627 -0.179,0 -0.269,0.224 -0.448,0.717 l -3.721,9.818 c -0.09,0.357 -0.268,0.718 -0.268,0.941 0,0.134 0.222,0.224 0.806,0.224 l 7.444,0 z"
         id="path25"
         inkscape:connector-curvature="0"
         style="fill:#1d1d1b" /><path
         d="m 315.396,78.711 3.723,-0.18 c 0.09,-2.376 0.134,-2.6 0.09,-7.174 l 0,-13.941 c 0,-4.932 0,-5.335 -0.09,-7.756 l -3.453,-0.091 0,-1.164 c 1.704,0 4.079,0 5.379,-0.045 5.201,-0.314 5.785,-0.314 7.085,-0.314 4.885,0 8.876,1.838 8.876,7.309 0,4.707 -3.316,6.545 -4.841,7.352 3.452,0.896 6.902,3.228 6.902,8.159 0,4.887 -3.362,9.011 -10.803,9.011 -1.211,0 -6.457,-0.088 -7.531,-0.088 -2.062,0 -3.677,0.045 -5.337,0.088 l 0,-1.166 z m 7.757,-15.691 2.467,0 c 3.944,0 7.755,-2.018 7.799,-6.815 0.046,-4.887 -3.54,-7.083 -8.337,-7.083 -1.437,0 -1.885,0.045 -1.885,2.241 l -0.044,11.657 z m 0,12.688 c 0,2.824 0.763,3.183 3.631,3.183 4.618,0 8.429,-2.152 8.429,-7.218 0,-7.711 -8.517,-7.621 -12.06,-7.666 l 0,11.701 z"
         id="path27"
         inkscape:connector-curvature="0"
         style="fill:#1d1d1b" /><path
         d="m 359.827,47.597 c 10.266,0 15.692,7.263 15.692,15.96 0,8.742 -5.829,17.037 -16.007,17.037 -10.399,0 -15.87,-8.16 -15.87,-16.141 0,-8.697 5.561,-16.856 16.185,-16.856 z m 0.09,32.011 c 7.173,0 11.478,-7.577 11.478,-15.87 0,-9.864 -5.784,-15.154 -11.523,-15.154 -4.526,0 -12.104,3.542 -12.104,15.781 -10e-4,9.28 5.781,15.243 12.149,15.243 z"
         id="path29"
         inkscape:connector-curvature="0"
         style="fill:#1d1d1b" /><path
         d="m 390.225,78.711 0,1.164 c -1.434,-0.043 -2.868,-0.088 -5.335,-0.088 -2.51,0 -3.856,0.045 -5.381,0.088 l 0,-1.164 3.318,-0.18 c 0.091,-2.421 0.044,-2.958 0.044,-8.787 0,-15.422 0.047,-17.127 -0.044,-20.085 l -3.318,-0.181 0,-1.164 c 1.524,0 3.051,0.09 4.575,0.09 1.344,0 2.645,-0.09 3.988,-0.18 1.347,-0.09 2.69,-0.18 3.99,-0.18 4.978,0 9.012,2.467 9.012,7.891 0,4.439 -3.496,6.726 -5.291,7.621 -0.224,0.135 -0.268,0.181 -0.268,0.269 0,0.226 4.438,7.129 6.365,9.909 2.87,4.124 3.632,4.751 4.843,5.245 l 0,0.808 c -2.331,0.088 -2.601,0.134 -3.139,0.088 -2.555,0 -3.139,-0.852 -7.846,-8.428 -0.718,-1.209 -4.034,-6.456 -4.395,-6.77 -0.268,-0.225 -0.582,-0.269 -1.658,-0.269 -0.582,-0.045 -0.986,-0.091 -2.868,-0.045 0,10.267 0,11.387 0.134,14.167 l 3.274,0.181 z m -0.718,-15.423 c 1.302,0 3.812,-0.044 4.618,-0.537 1.524,-0.896 3.183,-3.496 3.183,-6.77 0,-4.887 -3.45,-6.859 -7.935,-6.859 -0.717,0 -1.837,0.18 -2.377,0.493 -0.178,0.583 -0.178,12.015 -0.178,13.763 l 2.689,-0.09 z"
         id="path31"
         inkscape:connector-curvature="0"
         style="fill:#1d1d1b" /></g><g
       id="g33"><polygon
         points="232.263,20.478 234.26,22.574 425.917,22.574 425.917,103.769 311.62,103.769 313.618,105.865 428.013,105.865 428.013,20.478 "
         id="polygon35"
         style="fill:#1d1d1b" /><polygon
         points="119.929,103.769 4.913,103.769 4.913,22.574 197.289,22.574 199.286,20.478 2.816,20.478 2.816,105.865 117.932,105.865 "
         id="polygon37"
         style="fill:#1d1d1b" /></g><g
       id="g39"><path
         d="m 138.019,100.571 c -0.178,0.319 -0.579,0.839 -0.897,1.02 l -1.14,-0.061 c 0.359,0.42 0.6,1.059 0.6,1.759 0,2.156 -1.798,3.195 -3.497,3.195 -0.318,0 -0.698,-0.04 -1.019,-0.1 -0.261,0.18 -0.599,0.56 -0.599,0.839 0,0.378 0.36,0.761 1.259,0.761 0.739,0 1.437,-0.022 2.118,-0.022 1.237,0 2.855,0.4 2.855,2.357 0,2.018 -2.316,3.957 -4.973,3.957 -2.239,0 -3.457,-1.299 -3.478,-2.438 0,-0.44 0.18,-0.819 0.481,-1.117 0.397,-0.402 1.179,-1.021 1.657,-1.401 -0.719,-0.219 -1.217,-0.679 -1.478,-1.098 -0.179,-0.28 -0.241,-0.64 -0.221,-0.839 0.799,-0.301 1.438,-0.819 1.761,-1.218 -0.9,-0.38 -1.761,-1.32 -1.761,-2.679 0,-2.256 2.04,-3.314 3.577,-3.314 l 0.021,0 c 0.659,0 1.317,0.178 1.917,0.536 0.958,-0.059 1.976,-0.178 2.716,-0.297 l 0.101,0.16 z m -6.271,9.209 c -0.521,0.439 -0.919,1 -0.919,1.558 0,1.098 1.157,1.918 2.638,1.918 1.896,0 2.875,-0.979 2.875,-2.216 0,-0.68 -0.339,-1.179 -0.899,-1.419 -0.498,-0.2 -1.079,-0.261 -1.956,-0.261 -0.921,0 -1.381,0.12 -1.739,0.42 z m -0.341,-6.612 c 0,1.558 0.78,2.676 1.879,2.676 0.877,-0.021 1.658,-0.8 1.658,-2.376 0,-1.559 -0.739,-2.679 -1.898,-2.679 -0.84,0.001 -1.639,0.84 -1.639,2.379 z"
         id="path41"
         inkscape:connector-curvature="0"
         style="fill:#1d1d1b" /><path
         d="m 142.749,109.141 0,-0.518 c 1.259,-0.122 1.4,-0.24 1.4,-1.597 l 0,-4.118 c 0,-1.239 -0.061,-1.338 -1.26,-1.518 l 0,-0.479 c 1.019,-0.16 1.979,-0.418 2.837,-0.779 l 0,6.894 c 0,1.357 0.139,1.476 1.417,1.597 l 0,0.518 -4.394,0 z m 1.059,-11.727 c 0,-0.599 0.479,-1.039 1.018,-1.039 0.561,0 1,0.439 1,1.039 0,0.54 -0.439,1.019 -1.018,1.019 -0.52,0 -1,-0.479 -1,-1.019 z"
         id="path43"
         inkscape:connector-curvature="0"
         style="fill:#1d1d1b" /><path
         d="m 160.907,104.626 c 0,3.217 -2.359,4.754 -4.337,4.754 -2.736,0 -4.375,-2.197 -4.375,-4.415 0,-3.297 2.557,-4.793 4.398,-4.793 2.476,0.001 4.314,1.997 4.314,4.454 z m -6.853,-0.298 c 0,2.518 1.08,4.395 2.738,4.395 1.237,0 2.255,-0.919 2.255,-3.655 0,-2.317 -0.938,-4.237 -2.716,-4.237 -1.197,-0.001 -2.277,1.237 -2.277,3.497 z"
         id="path45"
         inkscape:connector-curvature="0"
         style="fill:#1d1d1b" /><path
         d="m 174.867,100.929 c -1.061,0.141 -1.22,0.321 -1.76,1.5 -0.678,1.499 -1.716,3.955 -2.837,6.931 l -0.558,0 c -0.878,-2.396 -1.797,-4.654 -2.757,-6.991 -0.459,-1.137 -0.6,-1.278 -1.677,-1.439 l 0,-0.517 4.095,0 0,0.517 c -1.079,0.122 -1.121,0.28 -0.8,1.139 0.499,1.4 1.317,3.518 1.897,4.935 0.698,-1.658 1.338,-3.456 1.778,-4.754 0.321,-0.958 0.199,-1.179 -0.938,-1.32 l 0,-0.517 3.557,0 0,0.516 z"
         id="path47"
         inkscape:connector-curvature="0"
         style="fill:#1d1d1b" /><path
         d="m 179.256,109.141 0,-0.518 c 1.26,-0.122 1.397,-0.24 1.397,-1.597 l 0,-4.118 c 0,-1.239 -0.058,-1.338 -1.259,-1.518 l 0,-0.479 c 1.021,-0.16 1.979,-0.418 2.837,-0.779 l 0,6.894 c 0,1.357 0.14,1.476 1.419,1.597 l 0,0.518 -4.394,0 z m 1.059,-11.727 c 0,-0.599 0.481,-1.039 1.02,-1.039 0.559,0 1,0.439 1,1.039 0,0.54 -0.44,1.019 -1.022,1.019 -0.517,0 -0.998,-0.479 -0.998,-1.019 z"
         id="path49"
         inkscape:connector-curvature="0"
         style="fill:#1d1d1b" /><path
         d="m 194.257,109.141 0,-0.518 c 1.178,-0.122 1.317,-0.28 1.317,-1.659 l 0,-3.336 c 0,-1.378 -0.479,-2.277 -1.818,-2.277 -0.797,0 -1.578,0.499 -2.178,1.019 l 0,4.696 c 0,1.356 0.121,1.436 1.3,1.558 l 0,0.518 -4.337,0 0,-0.518 c 1.36,-0.141 1.46,-0.24 1.46,-1.558 l 0,-4.118 c 0,-1.278 -0.12,-1.356 -1.199,-1.557 l 0,-0.461 c 0.96,-0.178 1.898,-0.417 2.776,-0.798 l 0,1.579 c 0.4,-0.3 0.84,-0.601 1.339,-0.939 0.559,-0.358 1.079,-0.598 1.658,-0.598 1.6,0 2.577,1.117 2.577,3.034 l 0,3.857 c 0,1.356 0.122,1.436 1.279,1.558 l 0,0.518 -4.174,0 z"
         id="path51"
         inkscape:connector-curvature="0"
         style="fill:#1d1d1b" /><path
         d="m 209.775,109.381 c -0.302,0 -0.72,-0.179 -0.941,-0.399 -0.257,-0.26 -0.379,-0.54 -0.479,-0.879 -0.8,0.539 -1.757,1.278 -2.358,1.278 -1.417,0 -2.396,-1.179 -2.396,-2.437 0,-0.98 0.52,-1.599 1.619,-1.978 1.198,-0.399 2.657,-0.939 3.096,-1.298 l 0,-0.34 c 0,-1.458 -0.68,-2.258 -1.699,-2.258 -0.379,0 -0.678,0.14 -0.898,0.381 -0.239,0.279 -0.419,0.718 -0.58,1.318 -0.099,0.319 -0.298,0.459 -0.578,0.459 -0.36,0 -0.86,-0.381 -0.86,-0.86 0,-0.278 0.241,-0.52 0.62,-0.799 0.54,-0.4 1.857,-1.157 2.996,-1.396 0.599,0 1.199,0.178 1.639,0.536 0.698,0.601 0.899,1.401 0.899,2.459 l 0,3.695 c 0,0.899 0.359,1.199 0.697,1.199 0.241,0 0.521,-0.101 0.721,-0.219 l 0.199,0.519 -1.697,1.019 z m -1.459,-5.034 c -0.42,0.22 -1.378,0.64 -1.798,0.839 -0.778,0.358 -1.218,0.739 -1.218,1.478 0,1.018 0.797,1.517 1.417,1.517 0.521,0 1.221,-0.338 1.6,-0.719 l 0,-3.115 z"
         id="path53"
         inkscape:connector-curvature="0"
         style="fill:#1d1d1b" /><path
         d="m 230.406,109.141 0,-0.518 c 1.178,-0.122 1.317,-0.28 1.317,-1.659 l 0,-3.336 c 0,-1.378 -0.479,-2.277 -1.819,-2.277 -0.797,0 -1.577,0.499 -2.177,1.019 l 0,4.696 c 0,1.356 0.12,1.436 1.3,1.558 l 0,0.518 -4.337,0 0,-0.518 c 1.359,-0.141 1.46,-0.24 1.46,-1.558 l 0,-4.118 c 0,-1.278 -0.12,-1.356 -1.199,-1.557 l 0,-0.461 c 0.96,-0.178 1.899,-0.417 2.776,-0.798 l 0,1.579 c 0.401,-0.3 0.842,-0.601 1.338,-0.939 0.56,-0.358 1.081,-0.598 1.659,-0.598 1.599,0 2.575,1.117 2.575,3.034 l 0,3.857 c 0,1.356 0.122,1.436 1.279,1.558 l 0,0.518 -4.172,0 z"
         id="path55"
         inkscape:connector-curvature="0"
         style="fill:#1d1d1b" /><path
         d="m 239.669,109.141 0,-0.518 c 1.259,-0.122 1.396,-0.24 1.396,-1.597 l 0,-4.118 c 0,-1.239 -0.058,-1.338 -1.257,-1.518 l 0,-0.479 c 1.02,-0.16 1.978,-0.418 2.836,-0.779 l 0,6.894 c 0,1.357 0.141,1.476 1.418,1.597 l 0,0.518 -4.393,0 z m 1.06,-11.727 c 0,-0.599 0.479,-1.039 1.018,-1.039 0.561,0 0.999,0.439 0.999,1.039 0,0.54 -0.438,1.019 -1.019,1.019 -0.519,0 -0.998,-0.479 -0.998,-1.019 z"
         id="path57"
         inkscape:connector-curvature="0"
         style="fill:#1d1d1b" /><path
         d="m 256.507,107.342 c -0.878,1.159 -2.197,2.039 -3.376,2.039 -2.517,0 -4.017,-2.039 -4.017,-4.174 0,-1.539 0.681,-2.877 2.019,-3.896 1.039,-0.798 2.238,-1.137 2.977,-1.137 l 0.021,0 c 0.817,0 1.478,0.258 1.799,0.536 0.26,0.22 0.318,0.381 0.318,0.601 0,0.42 -0.441,0.859 -0.659,0.859 -0.12,0 -0.22,-0.059 -0.38,-0.219 -0.6,-0.56 -1.298,-0.819 -2.018,-0.819 -1.319,0 -2.457,1.099 -2.457,3.197 0,2.775 1.877,3.694 3.016,3.694 0.859,0 1.498,-0.24 2.416,-1.099 l 0.341,0.418 z"
         id="path59"
         inkscape:connector-curvature="0"
         style="fill:#1d1d1b" /><path
         d="m 270.267,104.626 c 0,3.217 -2.357,4.754 -4.333,4.754 -2.737,0 -4.376,-2.197 -4.376,-4.415 0,-3.297 2.557,-4.793 4.395,-4.793 2.476,0.001 4.314,1.997 4.314,4.454 z m -6.851,-0.298 c 0,2.518 1.078,4.395 2.737,4.395 1.238,0 2.258,-0.919 2.258,-3.655 0,-2.317 -0.94,-4.237 -2.718,-4.237 -1.199,-0.001 -2.277,1.237 -2.277,3.497 z"
         id="path61"
         inkscape:connector-curvature="0"
         style="fill:#1d1d1b" /><path
         d="m 275.158,109.141 0,-0.518 c 1.26,-0.122 1.438,-0.24 1.438,-1.558 l 0,-9.45 c 0,-1.359 -0.12,-1.399 -1.377,-1.519 l 0,-0.479 c 1.038,-0.122 2.275,-0.461 2.955,-0.7 l 0,12.147 c 0,1.317 0.16,1.436 1.439,1.558 l 0,0.518 -4.455,0 z"
         id="path63"
         inkscape:connector-curvature="0"
         style="fill:#1d1d1b" /><path
         d="m 290.917,109.381 c -0.298,0 -0.72,-0.179 -0.938,-0.399 -0.26,-0.26 -0.38,-0.54 -0.482,-0.879 -0.797,0.539 -1.757,1.278 -2.354,1.278 -1.42,0 -2.4,-1.179 -2.4,-2.437 0,-0.98 0.521,-1.599 1.619,-1.978 1.198,-0.399 2.656,-0.939 3.097,-1.298 l 0,-0.34 c 0,-1.458 -0.679,-2.258 -1.699,-2.258 -0.38,0 -0.678,0.14 -0.897,0.381 -0.239,0.279 -0.42,0.718 -0.58,1.318 -0.1,0.319 -0.299,0.459 -0.579,0.459 -0.358,0 -0.86,-0.381 -0.86,-0.86 0,-0.278 0.241,-0.52 0.619,-0.799 0.541,-0.4 1.861,-1.157 2.999,-1.396 0.6,0 1.198,0.178 1.637,0.536 0.7,0.601 0.899,1.401 0.899,2.459 l 0,3.695 c 0,0.899 0.36,1.199 0.7,1.199 0.239,0 0.518,-0.101 0.718,-0.219 l 0.201,0.519 -1.7,1.019 z m -1.459,-5.034 c -0.419,0.22 -1.378,0.64 -1.799,0.839 -0.776,0.358 -1.218,0.739 -1.218,1.478 0,1.018 0.801,1.517 1.419,1.517 0.519,0 1.218,-0.338 1.598,-0.719 l 0,-3.115 z"
         id="path65"
         inkscape:connector-curvature="0"
         style="fill:#1d1d1b" /><path
         d="m 297.186,109.141 0,-0.518 c 1.259,-0.122 1.397,-0.24 1.397,-1.597 l 0,-4.118 c 0,-1.239 -0.059,-1.338 -1.258,-1.518 l 0,-0.479 c 1.021,-0.16 1.979,-0.418 2.836,-0.779 l 0,6.894 c 0,1.357 0.141,1.476 1.419,1.597 l 0,0.518 -4.394,0 z m 1.058,-11.727 c 0,-0.599 0.48,-1.039 1.021,-1.039 0.559,0 0.998,0.439 0.998,1.039 0,0.54 -0.439,1.019 -1.02,1.019 -0.519,0 -0.999,-0.479 -0.999,-1.019 z"
         id="path67"
         inkscape:connector-curvature="0"
         style="fill:#1d1d1b" /></g><path
       d="m 230.811,13.665 c 0.596,-0.314 3.368,-1.791 2.702,-3.565 -0.192,-0.515 -0.476,-0.942 -0.738,-1.398 -0.025,-0.046 -0.109,-0.092 -0.155,-0.082 -0.047,0.011 -0.097,0.083 -0.112,0.136 -0.068,0.24 -0.167,0.473 -0.394,0.582 -0.369,0.176 -2.63,1.164 -4.566,1.181 -0.556,0.005 -0.695,-0.086 -1.143,-0.216 -0.49,-0.143 -2.075,-0.508 -3.907,1.074 -0.131,0.113 -0.236,0.256 -0.352,0.384 -0.542,-0.479 -1.143,-0.896 -1.795,-1.226 -0.001,-0.037 -0.008,-0.087 0.036,-0.128 1.686,-1.573 0.326,-2.806 -0.746,-4.288 -0.325,-0.449 -0.854,-0.873 -1.096,-1.861 -0.086,-0.352 -0.136,-0.694 -0.062,-1.049 0.051,-0.25 0.026,-0.313 -0.224,-0.369 -0.521,-0.121 -0.738,-0.176 -1.433,0.299 -1.88,1.281 -2.335,3.611 -2.74,3.915 -0.356,0.265 -3.267,1.864 -3.693,3.725 -0.139,0.605 -0.305,1.202 -0.459,1.802 -0.034,0.134 -0.076,0.269 -0.132,0.396 -0.197,0.259 -0.376,0.533 -0.541,0.813 -1.544,-0.271 -2.521,-2.396 -3.854,-2.28 -0.308,0.028 -2.718,1.205 -4.912,0.733 -1.397,-0.301 -2.672,-1.869 -2.933,-2.15 -0.055,-0.056 -0.18,-0.069 -0.267,-0.059 -0.035,0.004 -0.082,0.123 -0.082,0.191 0.002,0.173 0.022,0.348 0.043,0.52 0.06,0.49 0.072,0.994 0.201,1.465 0.735,2.658 2.682,4.041 3.078,4.271 0.465,0.271 0.995,0.414 1.377,0.842 0.327,0.365 0.37,0.671 0.26,1.145 -1.145,4.905 -2.774,6.411 -3.598,6.437 -0.007,0.028 -0.015,0.057 -0.021,0.082 0.353,0.227 1.334,1.015 3.296,0.656 0.847,-0.154 2.75,-1.586 3.064,-1.708 0.253,-0.097 1.139,-0.46 1.729,0.004 0.381,0.302 0.845,0.47 1.345,0.256 0.304,-0.128 0.479,-0.187 0.727,-0.028 1.701,1.095 1.411,1.742 3.348,3.622 1.319,1.279 1.959,1.851 1.981,3.023 0.002,0.13 0.228,2.52 0.474,2.786 1.037,1.131 2.54,0.826 2.996,-0.138 0.08,-0.168 0.363,-1.908 0.479,-2.526 0.057,-0.301 0.157,-0.578 0.433,-0.776 0.266,-0.192 0.539,-0.394 0.747,-0.646 0.358,-0.433 1.537,-2.482 2.981,-3.887 0.326,-0.317 0.586,-0.684 0.975,-0.867 0.711,-0.336 1.438,-0.664 2.245,-0.703 0.114,-0.006 0.233,-0.008 0.339,0.027 0.649,0.221 1.267,0.506 1.798,0.963 0.299,0.257 0.522,0.55 0.646,0.92 0.185,0.557 0.367,1.112 0.547,1.668 0.091,0.286 0.325,0.375 0.557,0.186 0.209,-0.17 0.408,-0.357 0.592,-0.558 0.279,-0.302 1.724,-2.88 1.047,-5.137 -0.191,-0.64 -1.07,-0.946 -1.387,-1.526 -0.244,-0.93 -0.684,-2.141 -1.254,-2.498 -0.2,-0.131 0.305,-3.251 2.553,-4.435 z m -8.042,-1.635 c 0.36,-0.408 0.803,-0.715 1.266,-0.992 1.441,-0.875 3.028,-0.108 3.125,-0.065 -2.375,1.194 -2.332,1.976 -3.288,2.896 -0.002,-0.005 -0.01,-0.009 -0.012,-0.013 -0.335,-0.578 -0.737,-1.113 -1.196,-1.595 0.028,-0.091 0.077,-0.199 0.105,-0.231 z m -5.8,-8.538 c 0.203,-0.179 0.74,-0.487 1.264,-0.368 -0.062,0.428 -0.136,1.379 0.269,2.188 1.938,3.437 2.712,2.61 1.212,4.845 -0.021,0.032 -0.026,0.049 -0.04,0.069 -0.858,-0.343 -1.616,-0.531 -2.587,-0.574 -0.105,0.015 -0.304,0.073 -0.221,-0.188 0.085,-0.267 0.25,-1.342 0.217,-1.923 -0.025,-0.442 -1.117,-3.163 -0.114,-4.049 z m -6.263,8.255 c 0.281,-2.496 3.353,-3.945 3.803,-4.346 0.95,-0.842 0.697,-2.255 1.786,-3.268 -0.084,0.556 0.024,2.197 0.094,2.639 0.049,0.303 0.097,0.438 0.164,0.74 0.008,0.041 0.02,0.452 0.013,0.492 -0.097,0.569 -0.158,0.928 -0.267,1.496 -0.011,0.055 -0.105,0.141 -0.154,0.137 -0.236,-0.021 -0.463,0.013 -0.684,0.063 -1.803,0.228 -3.431,1.021 -4.694,2.2 -0.021,0.01 -0.033,0.018 -0.062,0.03 0,-0.076 -0.006,-0.13 10e-4,-0.183 z m -8.9,4.653 c -0.53,-0.33 -1.074,-0.644 -1.589,-0.994 -0.473,-0.322 -2.083,-1.618 -2.246,-3.94 0.467,0.162 2.247,1.695 2.961,2.227 0.392,0.289 1.311,0.598 2.204,0.705 1.352,0.158 4.009,-0.15 5.095,0.595 -0.025,-0.048 -0.79,-0.659 -1.533,-0.834 -0.623,-0.148 -4.84,-0.21 -5.828,-1.271 1.267,0.039 1.585,0.125 4.524,-0.612 0.337,-0.084 0.638,-0.056 0.868,0.166 1.181,1.125 2.293,1.569 2.736,1.828 -0.22,0.429 -0.4,0.879 -0.542,1.35 -0.359,0.076 -1.931,0.59 -3.312,0.319 -1.64,-0.321 -2.488,1.385 -2.574,1.571 -0.048,-0.141 -0.099,-0.228 -0.104,-0.316 -0.027,-0.429 -0.349,-0.603 -0.66,-0.794 z m 20.807,7.949 c -0.579,0.299 -0.915,0.831 -1.329,1.285 -0.493,0.54 -3.26,4.084 -3.329,4.131 -0.319,0.208 -0.382,0.542 -0.443,0.878 -0.146,0.785 -0.296,1.57 -0.443,2.356 -0.05,0.273 -0.318,0.715 -0.92,0.721 -0.775,0.008 -1.211,-0.322 -1.31,-1.093 -0.044,-0.341 -0.086,-0.681 -0.132,-1.021 -0.066,-0.496 -0.139,-0.992 -0.232,-1.482 -0.076,-0.379 -0.254,-0.756 -0.449,-1.096 -0.443,-0.768 -1.072,-1.372 -1.771,-1.914 -0.297,-0.232 -0.56,-0.524 -0.797,-0.818 -0.502,-0.619 -0.975,-1.26 -1.459,-1.893 0.016,-0.027 0.62,-0.006 3.142,1.28 -0.039,-0.032 -1.931,-1.707 -2.932,-2 -0.722,-0.21 -1.5,-0.15 -2.257,-0.046 -0.448,0.06 -0.841,-0.09 -1.217,-0.314 -0.279,-0.164 -0.582,-0.21 -0.911,-0.242 -1.152,-0.115 -3.434,1.781 -4.217,2.058 -0.522,0.187 -1.146,0.203 -1.854,-0.065 1.596,-1.555 1.644,-2.275 1.769,-2.62 0.178,-0.485 1.191,-4.177 1.965,-5.206 0.304,-0.406 1.065,-0.718 2.132,-0.631 0.944,0.077 1.591,-0.076 2.269,-0.297 0.892,-0.29 1.481,-0.004 2.152,0.588 0.295,0.262 0.55,0.572 0.792,0.883 0.156,0.203 0.148,0.461 0.101,0.713 -0.066,0.38 -0.121,0.762 -0.188,1.145 -0.009,0.058 -0.04,0.112 -0.063,0.178 -0.204,-0.178 -0.382,-0.344 -0.569,-0.496 -0.364,-0.297 -3.707,-1.353 -4.268,-1.242 -1.237,0.242 -2.038,1.17 -2.233,1.52 -0.286,0.513 -1.186,3.051 -1.384,3.79 0.031,0.013 0.668,-0.935 0.872,-1.371 0.27,-0.57 0.4,-1.026 0.667,-1.598 0.33,-0.709 0.864,-1.265 1.591,-1.541 1.384,-0.526 4.465,0.946 4.843,1.298 0.375,0.349 0.73,0.717 1.103,1.07 0.244,0.234 1.195,2.352 1.342,2.645 0.223,0.446 0.652,0.672 1.072,0.904 1.553,0.857 3.629,1.092 3.454,1.044 -0.468,-0.126 -1.149,-0.728 -1.235,-0.794 1.126,-0.666 1.547,-1.512 1.562,-1.547 0.189,-0.407 1.511,-1.543 1.868,-1.768 1.356,-0.844 2.893,0.542 3.054,0.717 0.155,0.166 0.098,0.336 -0.032,0.508 -1.087,1.418 -3.645,2.816 -3.747,2.939 1.823,-0.42 3.322,-1.337 4.436,-2.891 0.336,0.205 0.854,0.527 1.359,0.66 -0.102,0.038 -1.399,0.456 -1.824,0.675 z m 5.829,-4.912 c 0.143,0.293 0.621,1.593 0.965,1.844 0.674,0.488 0.876,0.572 1.032,1.119 0.6,2.09 -1.103,4.5 -1.261,4.672 -0.054,-0.166 -0.42,-1.233 -0.595,-1.644 -0.158,-0.37 -1.381,-1.316 -1.712,-1.486 -0.357,-0.181 -2.406,-0.778 -2.982,-1.123 -0.176,-0.104 -1.304,-1.044 -1.745,-1.321 -0.336,-0.21 -1.617,-1.219 -3.762,0.126 -0.019,-0.008 -0.037,-0.017 -0.058,-0.026 0.079,-1.457 1.124,-2.132 1.229,-2.16 0.716,-0.197 1.422,-0.342 2.151,-0.123 0.414,0.125 0.863,0.272 1.297,0.317 0.774,0.076 1.478,0.224 1.933,0.979 0.32,0.537 0.637,1.139 1.162,1.482 1.223,0.803 3.01,0.355 3.053,0.276 -0.075,0 -0.15,-0.006 -0.225,0 -0.719,0.062 -2.216,-0.485 -2.396,-0.703 -0.381,-0.467 -0.894,-1.39 -1.312,-1.818 -0.95,-0.971 -2.591,-0.987 -2.675,-1.03 0.185,-0.129 0.328,-0.246 0.488,-0.337 2.167,-1.232 4.763,-0.378 5.413,0.956 z m -0.963,-1.591 c -0.083,-0.101 -1.432,-0.54 -2.39,-0.605 -0.028,-0.004 -0.093,-0.042 -0.152,-0.079 -0.088,-0.805 -0.286,-1.572 -0.581,-2.291 0,-0.004 0.004,-0.012 0.002,-0.014 -0.132,-0.389 0.063,-0.568 0.358,-0.858 0.399,-0.39 1.18,-2.402 3.689,-2.979 0.531,-0.12 3.388,-0.468 4.297,-1.884 0.051,0.119 0.29,0.523 0.333,0.664 0.74,2.479 -2.541,3.214 -2.988,3.568 -2.241,1.766 -2.568,4.043 -2.568,4.478 z"
       id="path69"
       inkscape:connector-curvature="0"
       style="clip-rule:evenodd;fill:#1d1d1b;fill-rule:evenodd" /></g></svg>